<svg xmlns="http://www.w3.org/2000/svg" xmlns:xlink="http://www.w3.org/1999/xlink" width="2304" zoomAndPan="magnify" viewBox="0 0 1728 2592.000001" height="3456" preserveAspectRatio="xMidYMid meet" version="1.0"><defs><clipPath id="e652fca771"><path d="M 0.332031 0 L 1727.664062 0 L 1727.664062 2591 L 0.332031 2591 Z M 0.332031 0 " clip-rule="nonzero"/></clipPath><clipPath id="eae612a039"><path d="M 2.285156 1855 L 794 1855 L 794 2358 L 2.285156 2358 Z M 2.285156 1855 " clip-rule="nonzero"/></clipPath></defs><g clip-path="url(#e652fca771)"><path fill="#ffffff" d="M 0.332031 0 L 1727.667969 0 L 1727.667969 2598.496094 L 0.332031 2598.496094 Z M 0.332031 0 " fill-opacity="1" fill-rule="nonzero"/><path fill="#ffffff" d="M 0.332031 0 L 1727.667969 0 L 1727.667969 2591 L 0.332031 2591 Z M 0.332031 0 " fill-opacity="1" fill-rule="nonzero"/><path fill="#ffffff" d="M 0.332031 0 L 1727.667969 0 L 1727.667969 2591 L 0.332031 2591 Z M 0.332031 0 " fill-opacity="1" fill-rule="nonzero"/></g><path fill="#edf1ff" d="M 2.363281 238.441406 C 2.523438 199.953125 7.824219 169.25 22.132812 140.386719 C 40.503906 103.3125 65.511719 72.386719 102.117188 51.863281 C 127.757812 37.488281 154.070312 37.121094 180.574219 48.71875 C 198.695312 56.648438 214.539062 68.082031 229.125 81.582031 C 239.253906 90.945312 250.742188 98.808594 261.484375 107.535156 C 265.257812 110.609375 269.765625 111.367188 274.035156 111.117188 C 295.640625 109.863281 314.914062 102.644531 330.511719 87.109375 C 352.269531 65.429688 375.617188 45.753906 402.410156 30.558594 C 429.09375 15.4375 457.769531 5.710938 488.199219 2.074219 C 508.578125 -0.367188 528.648438 2.976562 548.214844 9.109375 C 563.027344 13.757812 577.105469 19.808594 588.914062 30.199219 C 600.898438 40.746094 609.339844 53.199219 609.859375 69.828125 C 610.304688 83.691406 605.328125 94.660156 592.914062 101.660156 C 578.699219 109.683594 564.71875 118.058594 552.726562 129.300781 C 544.6875 136.847656 537.578125 145.089844 534.417969 156.03125 C 530.785156 168.523438 534.710938 176.8125 546.902344 181.648438 C 563.074219 188.066406 579.824219 188.847656 596.828125 186.183594 C 618.414062 182.816406 637.898438 174.023438 655.664062 161.703125 C 670.871094 151.164062 685.378906 139.625 700.246094 128.59375 C 711.554688 120.199219 723.136719 112.246094 736.21875 106.742188 C 745.320312 102.917969 754.761719 100.304688 764.59375 99.414062 C 779.460938 98.054688 792.824219 102.214844 804.832031 110.980469 C 824.53125 125.363281 837.210938 144.707031 843.808594 167.894531 C 849.035156 186.230469 844.171875 199.375 828.460938 210.519531 C 821.59375 215.378906 813.785156 218.941406 806.359375 223.003906 C 799.703125 226.644531 792.964844 230.027344 787.988281 236.121094 C 780.707031 245.054688 777.699219 255.515625 777.683594 266.605469 C 777.644531 291.789062 769.324219 313.839844 753.984375 333.445312 C 739.394531 352.0625 725.066406 370.917969 709.851562 389.03125 C 683.734375 420.109375 653.710938 447.101562 620.730469 470.734375 C 598.414062 486.726562 576.117188 502.804688 553.097656 517.753906 C 530.472656 532.460938 507.117188 546.140625 482.144531 556.628906 C 458.300781 566.664062 433.636719 573.890625 407.496094 572.40625 C 378.226562 570.746094 352.011719 560.902344 331.871094 538.691406 C 318.402344 523.863281 311.574219 505.832031 309.46875 485.941406 C 308.292969 474.851562 307.085938 463.753906 305.394531 452.738281 C 303.8125 442.492188 300.449219 432.71875 294.238281 424.304688 C 283.523438 409.800781 268.726562 403.578125 251.054688 405.046875 C 240.875 405.878906 230.816406 408.105469 220.726562 409.867188 C 205.808594 412.480469 190.953125 415.445312 175.707031 415.558594 C 152.40625 415.742188 130.113281 410.957031 108.597656 402.261719 C 87.230469 393.644531 68.128906 381.394531 51.746094 365.210938 C 25.667969 339.445312 8.871094 308.847656 5.125 271.878906 C 3.785156 258.5625 2.914062 245.207031 2.363281 238.441406 Z M 2.363281 238.441406 " fill-opacity="1" fill-rule="evenodd"/><path fill="#edf1ff" d="M 1465.234375 1382.71875 C 1622.226562 1355.957031 1707.609375 1249.8125 1718.726562 1140.828125 C 1727.734375 1052.5625 1688.019531 962.433594 1598.171875 911.121094 C 1561.335938 890.085938 1519.640625 880.191406 1475.675781 871.480469 C 1332.082031 843 1340.046875 850.703125 1236.25 756.40625 C 1076.421875 611.21875 786.992188 721.015625 728.328125 924.535156 C 693.335938 1045.925781 725.273438 1197.253906 915.910156 1315.414062 C 1035.160156 1389.328125 990.214844 1563.847656 1154.855469 1578.144531 C 1200.296875 1582.089844 1248.125 1569.261719 1280.121094 1538.035156 C 1332.316406 1487.09375 1347.167969 1402.84375 1465.234375 1382.71875 " fill-opacity="1" fill-rule="evenodd"/><path fill="#edf1ff" d="M 215.316406 2067.136719 C 259.539062 2065.613281 300.316406 2055.699219 394.425781 2108.589844 C 508.089844 2172.46875 649.59375 2097.828125 618.195312 1994.214844 C 599.367188 1932.085938 559.441406 1880.070312 577.324219 1802.421875 C 590.789062 1743.953125 605.363281 1683.046875 596.980469 1631.695312 C 578.085938 1515.964844 399.257812 1477.554688 336.328125 1542.660156 C 270.773438 1610.492188 252.09375 1662.5625 198.421875 1702.097656 C 137.324219 1747.097656 26.835938 1733.765625 12.261719 1855.226562 C 0.339844 1954.558594 90.550781 2071.4375 215.316406 2067.136719 " fill-opacity="1" fill-rule="evenodd"/><path fill="#edf1ff" d="M 1584.789062 2259.390625 C 1585.222656 2264.835938 1585.878906 2270.769531 1586.53125 2276.433594 C 1588.898438 2286.132812 1592.527344 2295.332031 1597.425781 2304.035156 C 1601.285156 2310.675781 1605.824219 2316.808594 1611.046875 2322.4375 C 1617.585938 2329.082031 1616.878906 2330.226562 1633.222656 2345.960938 C 1676.046875 2387.011719 1678.660156 2388.101562 1697.347656 2414.453125 C 1699.367188 2417.511719 1701.183594 2420.6875 1702.796875 2423.980469 C 1717.558594 2451.203125 1728.128906 2489.316406 1708.679688 2512.835938 C 1670.542969 2558.84375 1570.839844 2514.46875 1524.039062 2496.503906 C 1502.246094 2488.117188 1470.265625 2473.363281 1435.722656 2474.179688 C 1400.203125 2474.941406 1369.203125 2489.804688 1338.910156 2508.371094 C 1321.480469 2518.644531 1304.738281 2529.933594 1288.675781 2542.238281 C 1269.171875 2554.488281 1246.78125 2569.460938 1216.054688 2577.519531 C 1170.289062 2589.386719 1120.21875 2579.859375 1099.40625 2565.269531 C 1090.359375 2559.726562 1082.097656 2553.191406 1074.617188 2545.667969 C 1067.867188 2539 1061.75 2531.800781 1056.257812 2524.066406 C 1050.769531 2516.328125 1045.992188 2508.175781 1041.929688 2499.605469 C 1040.457031 2496.882812 1036.480469 2490.242188 1035.933594 2488.71875 C 1034.167969 2484.816406 1031.949219 2481.183594 1029.289062 2477.828125 C 1026.183594 2473.800781 1008.476562 2446.140625 987.445312 2437.320312 C 974.863281 2432.453125 962.007812 2428.480469 948.871094 2425.394531 C 943.042969 2423.601562 937.484375 2421.09375 931.765625 2419.082031 C 909.15625 2410.804688 857.886719 2353.910156 854.78125 2318.953125 C 852.4375 2292.113281 850.914062 2269.355469 859.902344 2243.875 C 878.425781 2191.332031 879.679688 2191.769531 888.667969 2174.128906 C 923.429688 2105.851562 989.1875 2078.738281 1054.566406 2096.378906 C 1069.660156 2100.460938 1100.222656 2109.28125 1118.257812 2115.269531 C 1123.273438 2116.992188 1128.351562 2118.507812 1133.488281 2119.816406 C 1138.625 2121.128906 1143.808594 2122.226562 1149.039062 2123.117188 C 1154.265625 2124.007812 1159.519531 2124.683594 1164.804688 2125.148438 C 1170.085938 2125.609375 1175.378906 2125.859375 1180.679688 2125.894531 C 1185.984375 2125.929688 1191.28125 2125.75 1196.566406 2125.355469 C 1201.855469 2124.960938 1207.121094 2124.351562 1212.359375 2123.53125 C 1217.597656 2122.710938 1222.796875 2121.679688 1227.949219 2120.433594 C 1233.105469 2119.191406 1238.203125 2117.742188 1243.238281 2116.089844 C 1261.707031 2109.828125 1258.003906 2112.058594 1291.78125 2095.070312 C 1315.753906 2082.875 1363.371094 2038.773438 1417.910156 2019.664062 C 1492.929688 1993.421875 1580.753906 2035.996094 1593.667969 2140.042969 C 1597.644531 2172.003906 1582.171875 2223.402344 1584.789062 2259.390625 Z M 1584.789062 2259.390625 " fill-opacity="1" fill-rule="nonzero"/><path fill="#e7eaf1" d="M 1725.632812 757.371094 C 1725.460938 799.378906 1719.671875 832.886719 1704.050781 864.386719 C 1683.996094 904.847656 1656.695312 938.601562 1616.730469 961 C 1588.738281 976.691406 1560.011719 977.089844 1531.078125 964.429688 C 1511.296875 955.78125 1494 943.300781 1478.074219 928.566406 C 1467.019531 918.347656 1454.476562 909.765625 1442.75 900.242188 C 1438.632812 896.886719 1433.710938 896.058594 1429.050781 896.332031 C 1405.460938 897.703125 1384.421875 905.578125 1367.390625 922.535156 C 1343.636719 946.195312 1318.148438 967.667969 1288.898438 984.253906 C 1259.773438 1000.757812 1228.460938 1011.371094 1195.246094 1015.34375 C 1172.996094 1018.007812 1151.085938 1014.355469 1129.722656 1007.664062 C 1113.554688 1002.589844 1098.1875 995.984375 1085.292969 984.648438 C 1072.207031 973.132812 1062.996094 959.542969 1062.425781 941.394531 C 1061.941406 926.265625 1067.375 914.292969 1080.925781 906.65625 C 1096.445312 897.898438 1111.707031 888.753906 1124.796875 876.488281 C 1133.574219 868.25 1141.335938 859.253906 1144.789062 847.3125 C 1148.75 833.679688 1144.46875 824.632812 1131.160156 819.359375 C 1113.503906 812.351562 1095.21875 811.496094 1076.652344 814.40625 C 1053.089844 818.082031 1031.820312 827.675781 1012.421875 841.121094 C 995.820312 852.625 979.980469 865.222656 963.75 877.257812 C 951.40625 886.417969 938.761719 895.101562 924.480469 901.105469 C 914.546875 905.28125 904.238281 908.136719 893.503906 909.105469 C 877.273438 910.585938 862.683594 906.050781 849.574219 896.484375 C 828.070312 880.785156 814.226562 859.671875 807.023438 834.371094 C 801.320312 814.355469 806.628906 800.011719 823.78125 787.847656 C 831.277344 782.542969 839.800781 778.65625 847.910156 774.222656 C 855.171875 770.25 862.527344 766.558594 867.964844 759.90625 C 875.914062 750.152344 879.199219 738.738281 879.214844 726.636719 C 879.253906 699.152344 888.339844 675.082031 905.085938 653.6875 C 921.015625 633.371094 936.65625 612.789062 953.265625 593.023438 C 981.777344 559.105469 1014.554688 529.644531 1050.5625 503.851562 C 1074.921875 486.398438 1099.265625 468.851562 1124.394531 452.535156 C 1149.09375 436.484375 1174.59375 421.554688 1201.855469 410.109375 C 1227.886719 399.15625 1254.808594 391.269531 1283.347656 392.890625 C 1315.300781 394.699219 1343.917969 405.445312 1365.90625 429.683594 C 1380.609375 445.867188 1388.066406 465.550781 1390.363281 487.257812 C 1391.648438 499.359375 1392.964844 511.472656 1394.8125 523.492188 C 1396.539062 534.675781 1400.210938 545.34375 1406.992188 554.527344 C 1418.691406 570.355469 1434.839844 577.144531 1454.136719 575.542969 C 1465.246094 574.632812 1476.230469 572.207031 1487.242188 570.285156 C 1503.53125 567.429688 1519.746094 564.191406 1536.390625 564.070312 C 1561.828125 563.871094 1586.167969 569.09375 1609.65625 578.582031 C 1632.980469 587.988281 1653.839844 601.355469 1671.722656 619.019531 C 1700.191406 647.140625 1718.527344 680.53125 1722.617188 720.878906 C 1724.078125 735.410156 1725.03125 749.988281 1725.632812 757.371094 Z M 1725.632812 757.371094 " fill-opacity="1" fill-rule="evenodd"/><g clip-path="url(#eae612a039)"><path fill="#e7eaf1" d="M 578.367188 2357.554688 C 552.714844 2357.207031 527.457031 2354.175781 502.847656 2347.035156 C 475.136719 2338.992188 451.453125 2323.753906 429.816406 2305.015625 C 415.957031 2293.011719 404.613281 2278.699219 392.351562 2265.203125 C 380.25 2251.886719 367.832031 2238.824219 355.015625 2226.207031 C 346.476562 2217.800781 336.03125 2211.910156 325.042969 2206.988281 C 308.769531 2199.710938 292.304688 2200.84375 275.636719 2205.074219 C 257.335938 2209.710938 240.453125 2217.542969 224.257812 2227.164062 C 212.808594 2233.960938 201.144531 2240.472656 189.234375 2246.410156 C 175.472656 2253.257812 161.003906 2253.835938 146.175781 2249.660156 C 130.960938 2245.359375 116.53125 2239.332031 103.421875 2230.554688 C 83.722656 2217.363281 65.007812 2202.734375 49.996094 2184.316406 C 31.910156 2162.140625 16.359375 2138.214844 7.132812 2110.777344 C 4.210938 2102.09375 2.507812 2093.175781 3.21875 2083.882812 C 3.480469 2080.472656 2.15625 2076.808594 2.894531 2073.574219 C 6.796875 2056.625 16.117188 2043.539062 31.390625 2034.726562 C 45.0625 2026.863281 59.988281 2025.46875 75.296875 2024.496094 C 91.585938 2023.464844 108.042969 2024.097656 124.136719 2020.613281 C 135.835938 2018.078125 147.1875 2014.566406 157.71875 2008.71875 C 172.179688 2000.707031 178.628906 1988.207031 179.433594 1971.964844 C 180.253906 1955.34375 177.070312 1939.4375 172.984375 1923.511719 C 171.199219 1916.550781 169.9375 1909.316406 169.621094 1902.148438 C 168.644531 1879.554688 182.171875 1862.359375 206.035156 1857.792969 C 223.222656 1854.5 240.464844 1855.566406 257.664062 1858.328125 C 297.925781 1864.777344 332.4375 1883.046875 362.953125 1909.46875 C 377.273438 1921.867188 391.339844 1934.542969 405.585938 1947.023438 C 429.105469 1967.648438 456.699219 1975.410156 487.542969 1972.734375 C 495.808594 1972.015625 503.507812 1969.578125 510.742188 1965.433594 C 525.5625 1956.945312 538.105469 1945.835938 549 1932.792969 C 553.796875 1927.046875 558.304688 1921.0625 563.128906 1915.339844 C 573.007812 1903.625 584.828125 1894.183594 597.378906 1885.433594 C 617.972656 1871.078125 640.386719 1868.324219 664.34375 1873.675781 C 680.203125 1877.21875 694.171875 1884.6875 706.664062 1894.824219 C 730.816406 1914.429688 751.523438 1937.179688 768.144531 1963.535156 C 777.175781 1977.847656 784.347656 1993.082031 789.070312 2009.328125 C 798.925781 2043.222656 791.832031 2073.589844 769.242188 2100.488281 C 754.234375 2118.355469 736.089844 2132.726562 717.367188 2146.449219 C 709.078125 2152.53125 700.988281 2158.894531 692.894531 2165.242188 C 683.246094 2172.8125 677.5 2182.558594 676.117188 2194.914062 C 675.242188 2202.664062 676.960938 2209.820312 680.144531 2216.671875 C 682.703125 2222.179688 685.664062 2227.503906 688.675781 2232.789062 C 696.46875 2246.417969 702.742188 2260.738281 708.484375 2275.324219 C 716.257812 2295.101562 710.269531 2309.4375 696.527344 2322.003906 C 686.710938 2330.988281 674.957031 2336.832031 662.675781 2341.585938 C 642.050781 2349.566406 620.785156 2354.855469 598.644531 2356.253906 C 591.882812 2356.671875 585.121094 2357.121094 578.367188 2357.554688 Z M 578.367188 2357.554688 " fill-opacity="1" fill-rule="evenodd"/></g></svg>